<svg width="100" height="100" viewBox="0 0 100 100" fill="none" xmlns="http://www.w3.org/2000/svg">
  <style>
    path { fill: black; }
    @media (prefers-color-scheme: dark) {
      path { fill: white; }
    }
  </style>
<path d="M53.688 82.664C49.656 82.664 45.976 81.896 42.648 80.36C39.384 78.76 36.6 76.52 34.296 73.64C31.992 70.76 30.2 67.304 28.92 63.272C27.64 59.176 27 54.632 27 49.64C27 44.648 27.64 40.136 28.92 36.104C30.264 32.072 32.12 28.648 34.488 25.832C36.92 23.016 39.832 20.84 43.224 19.304C46.68 17.768 50.488 17 54.648 17C56.76 17 58.68 17.224 60.408 17.672C62.136 18.12 63.672 18.728 65.016 19.496C66.424 20.2 67.64 21 68.664 21.896C69.752 22.792 70.712 23.656 71.544 24.488L69.624 26.6C67.96 24.744 65.944 23.176 63.576 21.896C61.208 20.552 58.232 19.88 54.648 19.88C50.872 19.88 47.48 20.584 44.472 21.992C41.464 23.336 38.904 25.32 36.792 27.944C34.68 30.504 33.048 33.64 31.896 37.352C30.808 41 30.264 45.096 30.264 49.64C30.264 54.184 30.808 58.312 31.896 62.024C32.984 65.736 34.52 68.904 36.504 71.528C38.552 74.152 41.016 76.2 43.896 77.672C46.84 79.08 50.168 79.784 53.88 79.784C56.952 79.784 59.832 79.336 62.52 78.44C65.208 77.544 67.384 76.264 69.048 74.6V53.672H53.304V50.984H72.12V75.56C70.2 77.672 67.672 79.4 64.536 80.744C61.464 82.024 57.848 82.664 53.688 82.664Z" />
</svg>